# Blender v3.4.1 OBJ File: ''
# www.blender.org
mtllib untitled.mtl
o Cube
v 1.000000 1.000000 -1.000000
v 1.000000 -1.000000 -1.000000
v 1.000000 1.000000 1.000000
v 1.000000 -1.000000 1.000000
v -1.000000 1.000000 -1.000000
v -1.000000 -1.000000 -1.000000
v -1.000000 1.000000 1.000000
v -1.000000 -1.000000 1.000000
v 1.000000 4.246598 -1.000000
v 1.000000 4.246598 1.000000
v -1.000000 4.246598 -1.000000
v -1.000000 4.246598 1.000000
v 1.000000 1.000000 -3.426167
v 1.000000 -1.000000 -3.426167
v -1.000000 1.000000 -3.426167
v -1.000000 -1.000000 -3.426167
v 1.000000 4.246598 -3.426167
v -1.000000 4.246598 -3.426167
v -1.000000 4.246598 0.757478
v -1.000000 4.246598 -0.273198
v 0.650878 4.246598 0.757478
v 0.650878 4.246598 -0.273198
v -1.000000 4.246598 -1.302258
v -1.000000 4.648431 -1.302258
v -1.000000 4.246598 -3.294191
v -1.000000 4.648431 -3.294191
v 0.701876 4.246598 -1.302258
v 0.701876 4.648431 -1.302258
v 0.701876 4.246598 -3.294191
v 0.701876 4.648431 -3.294191
v -0.508220 4.909081 0.263657
v -0.995895 4.400609 0.753864
v -0.508220 4.909081 0.250710
v -0.995895 4.400609 -0.276812
v 0.124928 4.909081 0.263657
v 0.654983 4.400609 0.753864
v 0.124929 4.909081 0.250710
v 0.654983 4.400609 -0.276812
vt 0.625000 0.250000
vt 0.625000 0.000000
vt 0.625000 0.000000
vt 0.625000 0.250000
vt 0.375000 0.750000
vt 0.625000 0.750000
vt 0.625000 1.000000
vt 0.375000 1.000000
vt 0.375000 0.000000
vt 0.375000 0.250000
vt 0.125000 0.500000
vt 0.375000 0.500000
vt 0.125000 0.750000
vt 0.625000 0.500000
vt 0.625000 0.250000
vt 0.375000 0.250000
vt 0.625000 0.500000
vt 0.875000 0.500000
vt 0.875000 0.750000
vt 0.625000 0.750000
vt 0.625000 0.500000
vt 0.625000 0.500000
vt 0.625000 1.000000
vt 0.375000 0.500000
vt 0.625000 0.250000
vt 0.125000 0.500000
vt 0.875000 0.500000
vt 0.702060 0.623430
vt 0.797940 0.623430
vt 0.797940 0.626570
vt 0.702060 0.626570
vt 0.375000 0.500000
vt 0.314937 0.500000
vt 0.314937 0.750000
vt 0.375000 0.750000
vt 0.375000 0.000000
vt 0.314936 0.000000
vt 0.314936 0.250000
vt 0.375000 0.250000
vt 0.125000 0.500000
vt 0.125000 0.750000
vt 0.375000 0.000000
vt 0.625000 0.000000
vt 0.625000 0.250000
vt 0.375000 0.250000
vt 0.625000 0.500000
vt 0.375000 0.500000
vt 0.625000 0.750000
vt 0.375000 0.750000
vt 0.625000 1.000000
vt 0.375000 1.000000
vt 0.125000 0.500000
vt 0.125000 0.750000
vt 0.875000 0.500000
vt 0.875000 0.750000
vt 0.875000 0.500000
vt 0.875000 0.745474
vt 0.625000 0.500000
vt 0.871791 0.500000
vt 0.871791 0.750000
vt 0.625000 0.750000
vt 0.314937 1.000000
vt 0.375000 1.000000
vn -1.0000 0.0000 0.0000
vn 0.0000 0.0000 1.0000
vn 0.0000 -1.0000 0.0000
vn 1.0000 0.0000 0.0000
vn 0.0000 1.0000 0.0000
vn 0.0000 0.0000 -1.0000
vn 0.9996 -0.0266 0.0000
vn -0.9996 0.0266 0.0000
vn 0.0000 -0.0235 -0.9997
vn -0.7217 0.6922 0.0000
vn 0.0000 0.7200 -0.6940
vn 0.6923 0.7216 0.0000
vn 0.0000 0.6941 0.7199
vn 0.0000 0.0235 0.9997
usemtl Material
s off
f 5/1/1 7/2/1 12/3/1 11/4/1
f 4/5/2 3/6/2 7/7/2 8/8/2
f 8/9/1 7/2/1 5/1/1 6/10/1
f 6/11/3 2/12/3 4/5/3 8/13/3
f 2/12/4 1/14/4 3/6/4 4/5/4
f 6/10/1 5/1/1 15/15/1 16/16/1
f 9/17/5 11/18/5 12/19/5 10/20/5
f 3/6/4 1/14/4 9/17/4 10/20/4
f 9/17/4 1/14/4 13/21/4 17/22/4
f 7/7/2 3/6/2 10/20/2 12/23/2
f 16/16/6 15/15/6 13/21/6 14/24/6
f 13/21/6 15/15/6 18/25/6 17/22/6
f 2/12/3 6/11/3 16/26/3 14/24/3
f 5/1/1 11/4/1 18/25/1 15/15/1
f 11/18/5 9/17/5 17/22/5 18/27/5
f 1/14/4 2/12/4 14/24/4 13/21/4
f 37/28/5 33/29/5 31/30/5 35/31/5
f 22/32/7 38/33/7 36/34/7 21/35/7
f 19/36/8 32/37/8 34/38/8 20/39/8
f 20/40/3 22/32/3 21/35/3 19/41/3
f 20/39/9 34/38/9 38/33/9 22/32/9
f 23/42/1 24/43/1 26/44/1 25/45/1
f 25/45/6 26/44/6 30/46/6 29/47/6
f 29/47/4 30/46/4 28/48/4 27/49/4
f 27/49/2 28/48/2 24/50/2 23/51/2
f 25/52/3 29/47/3 27/49/3 23/53/3
f 30/46/5 26/54/5 24/55/5 28/48/5
f 31/30/10 33/29/10 34/56/10 32/57/10
f 33/29/11 37/28/11 38/58/11 34/59/11
f 37/28/12 35/31/12 36/34/12 38/33/12
f 35/31/13 31/30/13 32/60/13 36/61/13
f 21/35/14 36/34/14 32/62/14 19/63/14
